<?xml version="1.0" encoding="utf-8"?>
<!-- Generator: Adobe Illustrator 22.1.0, SVG Export Plug-In . SVG Version: 6.00 Build 0)  -->
<svg version="1.1" id="图层_1" xmlns="http://www.w3.org/2000/svg" xmlns:xlink="http://www.w3.org/1999/xlink" x="0px" y="0px"
	 viewBox="0 0 32 32" style="enable-background:new 0 0 32 32;" xml:space="preserve">
<style type="text/css">
	.st0{fill:#333333;}
	.st1{fill:#313F3B;}
	.st2{fill:#FFFFFF;}
</style>
<path class="st0" d="M4.6,0C3.2,0,2,1.1,2,2.5v26.9C2,30.9,3.2,32,4.6,32h22.9c1.4,0,2.5-1.1,2.5-2.5V10.1L20.5,0
	C20.5,0,4.5,0,4.6,0z"/>
<path class="st1" d="M30,10.2v0.5h-6.4c0,0-3.1-0.6-3.1-3.4c0,0,0.1,2.9,3,2.9H30z"/>
<path class="st2" d="M20.5,0v7.3c0,0.8,0.5,2.9,3,2.9H30L20.5,0z"/>
</svg>
